<svg width="20" height="23" viewBox="0 0 20 23" fill="none" xmlns="http://www.w3.org/2000/svg">
<g clip-path="url(#clip0)">
<path d="M11.9643 18.5323H13.0357C13.1778 18.5323 13.3141 18.476 13.4145 18.3757C13.515 18.2755 13.5714 18.1395 13.5714 17.9977V8.37518C13.5714 8.23339 13.515 8.09742 13.4145 7.99717C13.3141 7.89691 13.1778 7.84059 13.0357 7.84059H11.9643C11.8222 7.84059 11.6859 7.89691 11.5855 7.99717C11.485 8.09742 11.4286 8.23339 11.4286 8.37518V17.9977C11.4286 18.1395 11.485 18.2755 11.5855 18.3757C11.6859 18.476 11.8222 18.5323 11.9643 18.5323ZM19.2857 3.5639H15.6067L14.0888 1.03799C13.8984 0.721252 13.6289 0.459161 13.3067 0.277253C12.9845 0.0953444 12.6206 -0.000175673 12.2504 2.42544e-07H7.74955C7.37953 -2.17741e-05 7.0158 0.0955714 6.69379 0.277472C6.37178 0.459373 6.10246 0.721382 5.91205 1.03799L4.3933 3.5639H0.714286C0.524845 3.5639 0.343164 3.639 0.209209 3.77267C0.0752549 3.90635 0 4.08764 0 4.27669L0 4.98947C0 5.17851 0.0752549 5.35981 0.209209 5.49348C0.343164 5.62715 0.524845 5.70225 0.714286 5.70225H1.42857V20.6706C1.42857 21.2378 1.65434 21.7817 2.0562 22.1827C2.45806 22.5837 3.00311 22.809 3.57143 22.809H16.4286C16.9969 22.809 17.5419 22.5837 17.9438 22.1827C18.3457 21.7817 18.5714 21.2378 18.5714 20.6706V5.70225H19.2857C19.4752 5.70225 19.6568 5.62715 19.7908 5.49348C19.9247 5.35981 20 5.17851 20 4.98947V4.27669C20 4.08764 19.9247 3.90635 19.7908 3.77267C19.6568 3.639 19.4752 3.5639 19.2857 3.5639ZM7.67143 2.26798C7.6953 2.22833 7.72908 2.19554 7.76946 2.17281C7.80983 2.15009 7.85543 2.13821 7.90179 2.13834H12.0982C12.1445 2.13829 12.19 2.1502 12.2303 2.17292C12.2706 2.19564 12.3043 2.22839 12.3281 2.26798L13.1076 3.5639H6.89241L7.67143 2.26798ZM16.4286 20.6706H3.57143V5.70225H16.4286V20.6706ZM6.96429 18.5323H8.03571C8.17779 18.5323 8.31406 18.476 8.41452 18.3757C8.51499 18.2755 8.57143 18.1395 8.57143 17.9977V8.37518C8.57143 8.23339 8.51499 8.09742 8.41452 7.99717C8.31406 7.89691 8.17779 7.84059 8.03571 7.84059H6.96429C6.82221 7.84059 6.68595 7.89691 6.58548 7.99717C6.48501 8.09742 6.42857 8.23339 6.42857 8.37518V17.9977C6.42857 18.1395 6.48501 18.2755 6.58548 18.3757C6.68595 18.476 6.82221 18.5323 6.96429 18.5323Z" fill="#CD2121"/>
</g>
<defs>
<clipPath id="clip0">
<rect width="20" height="22.809" fill="white"/>
</clipPath>
</defs>
</svg>
