<svg width="65" height="96" viewBox="0 0 65 96" fill="none" xmlns="http://www.w3.org/2000/svg">
<path d="M27.3105 36.3935C27.3105 42.0282 32.1169 46.6385 37.9914 46.6385C43.8658 46.6385 48.6722 42.0282 48.6722 36.3935C48.6722 30.7587 43.8658 26.1484 37.9914 26.1484C32.0406 26.1484 27.3105 30.6855 27.3105 36.3935Z" fill="#1C47BD"/>
<path d="M51.7253 23.5877C57.9812 21.6118 63.0164 16.782 65 10.8546C57.4471 3.53667 46.7663 -0.707696 35.0174 0.0972709C16.3259 1.48767 1.22015 16.1234 0.0757726 34.0522C-1.29748 55.2009 16.1733 72.7638 37.9927 72.7638C48.5973 72.7638 58.1338 68.5926 65 61.9333C62.9401 55.9327 57.9049 51.1761 51.7253 49.2002C47.7581 53.1519 41.9599 55.3473 35.6277 54.6155C33.1101 54.3228 30.8213 53.591 28.6852 52.4201L22.4292 58.4208C18.9961 57.3231 16.1733 54.6886 15.0289 51.3956L21.2086 45.4681C19.9879 43.3459 19.1487 41.0774 18.8435 38.5893C17.5466 27.5393 26.549 18.0993 37.9165 18.0993C43.3332 18.0261 48.2158 20.1483 51.7253 23.5877Z" fill="#1C47BD"/>
<path d="M17.1998 93H18.9918L14.2718 82.008H12.4798L7.75975 93H9.55175L10.5118 90.76H16.2398L17.1998 93ZM11.1358 89.304L13.3758 84.088L15.6158 89.304H11.1358ZM26.9263 81.816V86.152C26.2863 85.144 25.2623 84.536 23.9823 84.536C21.8063 84.536 20.1743 86.328 20.1743 88.856C20.1743 91.4 21.8063 93.192 23.9823 93.192C25.2623 93.192 26.2863 92.584 26.9263 91.56V93H28.4943V81.816H26.9263ZM24.3663 91.816C22.8463 91.816 21.7743 90.584 21.7743 88.856C21.7743 87.128 22.8463 85.912 24.3663 85.912C25.8543 85.912 26.9263 87.128 26.9263 88.856C26.9263 90.584 25.8543 91.816 24.3663 91.816ZM40.1188 84.536C38.8708 84.536 37.8148 85.176 37.4308 86.2C36.9508 85.176 35.9748 84.536 34.7748 84.536C33.7188 84.536 32.8548 85.064 32.4388 85.88V84.728H30.8548V93H32.4388V87.832C32.4388 86.696 33.2708 85.912 34.4548 85.912C35.4948 85.912 36.2148 86.76 36.2148 87.976V93H37.7668V87.832C37.7668 86.696 38.5988 85.912 39.7828 85.912C40.8228 85.912 41.5428 86.76 41.5428 87.976V93H43.0948V87.736C43.0948 85.864 41.8468 84.536 40.1188 84.536ZM46.1548 83.352C46.6668 83.352 47.0988 82.904 47.0988 82.392C47.0988 81.896 46.6668 81.448 46.1548 81.448C45.6108 81.448 45.1948 81.896 45.1948 82.392C45.1948 82.904 45.6108 83.352 46.1548 83.352ZM45.3548 93H46.9388V84.728H45.3548V93ZM53.4381 84.536C52.3181 84.536 51.3101 85.112 50.8141 85.928V84.728H49.2301V93H50.8141V87.64C50.9421 86.664 51.9341 85.912 53.0861 85.912C54.2061 85.912 54.9901 86.776 54.9901 88.008V93H56.5421V87.736C56.5421 85.864 55.2621 84.536 53.4381 84.536Z" fill="black"/>
</svg>
