<svg width="20" height="23" viewBox="0 0 20 23" fill="none" xmlns="http://www.w3.org/2000/svg">
<path d="M18.5714 9.28567H12.1429V2.8571C12.1429 2.06826 11.5031 1.42853 10.7143 1.42853H9.28571C8.49687 1.42853 7.85714 2.06826 7.85714 2.8571V9.28567H1.42857C0.639732 9.28567 0 9.9254 0 10.7142V12.1428C0 12.9317 0.639732 13.5714 1.42857 13.5714H7.85714V20C7.85714 20.7888 8.49687 21.4285 9.28571 21.4285H10.7143C11.5031 21.4285 12.1429 20.7888 12.1429 20V13.5714H18.5714C19.3603 13.5714 20 12.9317 20 12.1428V10.7142C20 9.9254 19.3603 9.28567 18.5714 9.28567Z" fill="white"/>
</svg>
