<svg width="25" height="18" viewBox="0 0 25 18" fill="none" xmlns="http://www.w3.org/2000/svg">
<path d="M0.346001 9.79624L8.67975 17.6699C9.42383 18.3729 10.7136 17.8808 10.7136 16.8732V12.3739H17.4599C18.1197 12.3739 18.6505 11.8725 18.6505 11.2491V6.74988C18.6505 6.12654 18.1197 5.62506 17.4599 5.62506H10.7136V1.12581C10.7136 0.122852 9.42879 -0.373941 8.67975 0.329067L0.346001 8.20276C-0.115332 8.64331 -0.115332 9.35569 0.346001 9.79624ZM15.4757 17.4356V15.5609C15.4757 15.2516 15.7436 14.9985 16.071 14.9985H20.2379C21.1159 14.9985 21.8252 14.3283 21.8252 13.4988V4.50025C21.8252 3.6707 21.1159 3.0005 20.2379 3.0005H16.071C15.7436 3.0005 15.4757 2.74742 15.4757 2.43809V0.563403C15.4757 0.25408 15.7436 0.000996799 16.071 0.000996799H20.2379C22.867 0.000996799 25 2.01629 25 4.50025V13.4988C25 15.9827 22.867 17.998 20.2379 17.998H16.071C15.7436 17.998 15.4757 17.7449 15.4757 17.4356Z" fill="white"/>
</svg>
