<svg width="65" height="95" viewBox="0 0 65 95" fill="none" xmlns="http://www.w3.org/2000/svg">
<path d="M27.3105 36.3938C27.3105 42.0285 32.1169 46.6388 37.9914 46.6388C43.8658 46.6388 48.6722 42.0285 48.6722 36.3938C48.6722 30.759 43.8658 26.1487 37.9914 26.1487C32.0406 26.1487 27.3105 30.6858 27.3105 36.3938Z" fill="white"/>
<path d="M51.7253 23.5877C57.9812 21.6118 63.0164 16.782 65 10.8546C57.4471 3.53667 46.7663 -0.707696 35.0174 0.0972709C16.3259 1.48767 1.22015 16.1234 0.0757726 34.0522C-1.29748 55.2009 16.1733 72.7638 37.9927 72.7638C48.5973 72.7638 58.1338 68.5926 65 61.9333C62.9401 55.9327 57.9049 51.1761 51.7253 49.2002C47.7581 53.1519 41.9599 55.3473 35.6277 54.6155C33.1101 54.3228 30.8213 53.591 28.6852 52.4201L22.4292 58.4208C18.9961 57.3231 16.1733 54.6886 15.0289 51.3956L21.2086 45.4681C19.9879 43.3459 19.1487 41.0774 18.8435 38.5893C17.5466 27.5393 26.549 18.0993 37.9165 18.0993C43.3332 18.0261 48.2158 20.1483 51.7253 23.5877Z" fill="white"/>
<path d="M17.1998 94H18.9918L14.2718 83.008H12.4798L7.75975 94H9.55175L10.5118 91.76H16.2398L17.1998 94ZM11.1358 90.304L13.3758 85.088L15.6158 90.304H11.1358ZM26.9263 82.816V87.152C26.2863 86.144 25.2623 85.536 23.9823 85.536C21.8063 85.536 20.1743 87.328 20.1743 89.856C20.1743 92.4 21.8063 94.192 23.9823 94.192C25.2623 94.192 26.2863 93.584 26.9263 92.56V94H28.4943V82.816H26.9263ZM24.3663 92.816C22.8463 92.816 21.7743 91.584 21.7743 89.856C21.7743 88.128 22.8463 86.912 24.3663 86.912C25.8543 86.912 26.9263 88.128 26.9263 89.856C26.9263 91.584 25.8543 92.816 24.3663 92.816ZM40.1188 85.536C38.8708 85.536 37.8148 86.176 37.4308 87.2C36.9508 86.176 35.9748 85.536 34.7748 85.536C33.7188 85.536 32.8548 86.064 32.4388 86.88V85.728H30.8548V94H32.4388V88.832C32.4388 87.696 33.2708 86.912 34.4548 86.912C35.4948 86.912 36.2148 87.76 36.2148 88.976V94H37.7668V88.832C37.7668 87.696 38.5988 86.912 39.7828 86.912C40.8228 86.912 41.5428 87.76 41.5428 88.976V94H43.0948V88.736C43.0948 86.864 41.8468 85.536 40.1188 85.536ZM46.1548 84.352C46.6668 84.352 47.0988 83.904 47.0988 83.392C47.0988 82.896 46.6668 82.448 46.1548 82.448C45.6108 82.448 45.1948 82.896 45.1948 83.392C45.1948 83.904 45.6108 84.352 46.1548 84.352ZM45.3548 94H46.9388V85.728H45.3548V94ZM53.4381 85.536C52.3181 85.536 51.3101 86.112 50.8141 86.928V85.728H49.2301V94H50.8141V88.64C50.9421 87.664 51.9341 86.912 53.0861 86.912C54.2061 86.912 54.9901 87.776 54.9901 89.008V94H56.5421V88.736C56.5421 86.864 55.2621 85.536 53.4381 85.536Z" fill="white"/>
</svg>
