<svg width="25" height="24" viewBox="0 0 25 24" fill="none" xmlns="http://www.w3.org/2000/svg">
<path d="M23.7986 14.7984L21.7186 13.6453C21.9285 12.5578 21.9285 11.4422 21.7186 10.3547L23.7986 9.20156C24.0379 9.07031 24.1453 8.79843 24.0672 8.54531C23.5252 6.87656 22.6023 5.36718 21.3963 4.11093C21.2107 3.91874 20.908 3.87187 20.6736 4.00312L18.5936 5.15624C17.7195 4.43437 16.7137 3.87656 15.6248 3.51093V1.20937C15.6248 0.94687 15.4344 0.717183 15.1658 0.660933C13.3738 0.276558 11.5379 0.295308 9.83379 0.660933C9.56524 0.717183 9.37481 0.94687 9.37481 1.20937V3.51562C8.29083 3.88593 7.28497 4.44374 6.40606 5.16093L4.33086 4.00781C4.09161 3.87656 3.79376 3.91874 3.60821 4.11562C2.40215 5.36718 1.4793 6.87656 0.937311 8.54999C0.854303 8.80312 0.966607 9.07499 1.20587 9.20624L3.28594 10.3594C3.07598 11.4469 3.07598 12.5625 3.28594 13.65L1.20587 14.8031C0.966607 14.9344 0.859186 15.2062 0.937311 15.4594C1.4793 17.1281 2.40215 18.6375 3.60821 19.8937C3.79376 20.0859 4.09649 20.1328 4.33086 20.0016L6.41094 18.8484C7.28497 19.5703 8.29083 20.1281 9.37969 20.4937V22.8C9.37969 23.0625 9.57012 23.2922 9.83868 23.3484C11.6307 23.7328 13.4666 23.7141 15.1707 23.3484C15.4393 23.2922 15.6297 23.0625 15.6297 22.8V20.4937C16.7137 20.1234 17.7195 19.5656 18.5984 18.8484L20.6785 20.0016C20.9178 20.1328 21.2156 20.0906 21.4012 19.8937C22.6072 18.6422 23.5301 17.1328 24.0721 15.4594C24.1453 15.2016 24.0379 14.9297 23.7986 14.7984ZM12.4998 15.75C10.3465 15.75 8.59356 14.0672 8.59356 12C8.59356 9.93281 10.3465 8.24999 12.4998 8.24999C14.6531 8.24999 16.4061 9.93281 16.4061 12C16.4061 14.0672 14.6531 15.75 12.4998 15.75Z" fill="white"/>
</svg>
